<svg version="1.0" xmlns="http://www.w3.org/2000/svg"
 width="512.000000pt" height="512.000000pt" viewBox="0 0 512.000000 512.000000"
 preserveAspectRatio="xMidYMid meet">

<g transform="translate(0.000000,512.000000) scale(0.100000,-0.100000)"
fill="#000000" stroke="none">
<path d="M1865 4969 c-609 -77 -1161 -412 -1494 -907 -391 -581 -476 -1285
-234 -1937 38 -104 154 -328 219 -425 290 -432 738 -750 1231 -875 135 -34
348 -65 445 -65 44 0 72 -7 111 -26 152 -77 361 -122 628 -133 203 -9 355 -2
759 34 303 27 490 32 555 14 55 -14 124 -63 158 -109 42 -59 58 -114 67 -230
5 -58 12 -113 15 -123 9 -23 56 -47 91 -47 27 0 615 332 660 372 12 11 27 39
34 64 41 144 -83 375 -282 527 -151 115 -314 175 -502 184 -176 9 -277 -14
-546 -126 -247 -103 -415 -152 -635 -187 -136 -21 -138 -18 -30 39 286 151
564 400 743 669 428 640 484 1439 147 2123 -319 649 -937 1079 -1670 1164
-105 13 -370 12 -470 0z m526 -205 c564 -78 1071 -417 1372 -916 121 -202 212
-458 249 -703 17 -115 17 -444 -1 -550 -69 -421 -254 -790 -540 -1076 -569
-567 -1430 -720 -2158 -384 -411 190 -747 528 -935 940 -122 268 -170 493
-170 795 -1 205 13 314 62 498 176 667 712 1193 1385 1361 234 59 480 70 736
35z m2068 -3690 c174 -44 361 -192 437 -348 21 -44 34 -81 29 -83 -6 -2 -102
-57 -215 -123 l-205 -119 -20 77 c-52 193 -174 318 -355 363 -71 18 -294 15
-538 -7 -101 -9 -186 -13 -189 -10 -4 3 1 6 9 6 54 0 301 86 526 184 193 83
354 102 521 60z"/>
<path d="M1990 4501 c-222 -60 -369 -250 -370 -477 0 -140 46 -252 144 -350
159 -159 380 -192 588 -88 59 30 155 123 192 187 83 144 86 329 9 481 -35 68
-144 176 -213 209 -120 58 -233 70 -350 38z m233 -197 c60 -20 131 -84 165
-148 23 -44 27 -63 27 -136 0 -73 -4 -92 -27 -136 -35 -66 -106 -128 -170
-150 -67 -22 -177 -15 -235 14 -226 116 -219 441 11 548 61 29 159 32 229 8z"/>
<path d="M1017 3933 c-330 -67 -497 -434 -332 -729 40 -71 135 -164 204 -199
282 -142 626 12 707 318 16 61 18 174 3 237 -37 162 -177 314 -332 361 -62 20
-185 25 -250 12z m228 -218 c181 -88 227 -322 92 -472 -101 -112 -288 -125
-410 -30 -81 63 -121 167 -106 275 10 73 27 108 76 163 87 97 229 123 348 64z"/>
<path d="M3048 3910 c-190 -34 -332 -157 -394 -340 -28 -82 -25 -235 6 -315
67 -174 224 -287 419 -301 273 -21 505 182 527 461 15 175 -73 344 -223 432
-95 56 -233 82 -335 63z m198 -199 c103 -48 164 -146 164 -261 0 -114 -64
-221 -163 -272 -58 -29 -168 -36 -235 -14 -65 22 -142 91 -173 153 -18 38 -23
65 -23 128 0 97 28 160 99 223 59 51 111 70 200 71 57 1 81 -4 131 -28z"/>
<path d="M2054 3260 c-189 -27 -334 -195 -334 -390 0 -348 418 -525 667 -283
273 266 46 726 -333 673z m140 -205 c90 -43 136 -141 112 -236 -43 -166 -261
-202 -361 -60 -26 37 -30 51 -30 111 0 60 4 74 30 112 55 78 168 111 249 73z"/>
<path d="M996 2774 c-153 -37 -287 -155 -346 -305 -27 -68 -37 -203 -21 -281
19 -88 67 -176 135 -243 102 -100 211 -145 357 -145 226 0 428 160 478 380 28
120 2 278 -61 373 -123 185 -334 271 -542 221z m257 -214 c183 -92 217 -348
66 -485 -61 -55 -112 -75 -193 -75 -88 0 -132 14 -192 59 -159 121 -154 368
10 479 65 43 97 52 186 49 56 -2 87 -8 123 -27z"/>
<path d="M3016 2779 c-158 -32 -311 -161 -366 -306 -149 -400 223 -791 622
-654 222 76 365 310 330 538 -29 185 -172 358 -336 409 -65 20 -186 26 -250
13z m207 -209 c103 -39 178 -142 185 -257 8 -117 -37 -202 -137 -261 -35 -20
-61 -27 -125 -30 -70 -4 -88 -1 -136 21 -116 51 -180 150 -180 275 0 40 6 87
14 106 28 68 104 131 186 157 48 14 138 9 193 -11z"/>
<path d="M1968 2191 c-209 -67 -348 -256 -348 -473 0 -442 531 -663 843 -351
266 266 149 721 -212 827 -74 22 -210 20 -283 -3z m275 -199 c25 -11 67 -41
91 -67 144 -148 99 -394 -89 -485 -69 -34 -179 -34 -250 -2 -156 72 -225 263
-149 414 70 140 252 204 397 140z"/>
</g>
</svg>
